<svg width="77" height="48" viewBox="0 0 77 48" fill="none" xmlns="http://www.w3.org/2000/svg">
<path d="M61.9382 4.41119V12.6931L62.995 11.7341V4.41119C62.995 1.98765 61.3368 0 59.3143 0H17.6784C15.6376 0 13.9977 1.97021 13.9977 4.41119V20.7308L15.0546 19.7021V4.39375C15.0546 2.6502 16.2389 1.23792 17.6967 1.23792H59.3325C60.7538 1.2728 61.9382 2.68507 61.9382 4.41119Z" fill="white"/>
<path d="M61.9382 29.4835V43.5888C61.9382 45.3324 60.7538 46.7446 59.3143 46.7446H17.6785C16.2207 46.7446 15.0364 45.3324 15.0364 43.5888V35.7777C14.6902 35.7777 14.3257 35.7777 13.9795 35.7951V43.5888C13.9795 46.0124 15.6377 48 17.6602 48H59.2961C61.3369 48 62.9768 46.0298 62.9768 43.5888V28.0712L61.9382 29.4835Z" fill="white"/>
<path d="M20.357 39.2822C20.521 38.8987 20.8307 38.7069 21.3227 38.7069C21.8147 38.7069 22.1427 38.8987 22.2884 39.2997L23.7097 42.8565H22.6164L21.3774 39.7181C21.3591 39.6833 21.3591 39.6833 21.3227 39.6833C21.3045 39.6833 21.2862 39.6833 21.268 39.7181L19.9743 42.8565H18.881L20.357 39.2822Z" fill="white"/>
<path fill-rule="evenodd" clip-rule="evenodd" d="M28.3926 40.7991C28.6659 40.6073 28.7934 40.3283 28.7934 39.9622C28.7934 39.5263 28.593 38.7766 27.3175 38.7766H25.5683C25.2585 38.7766 25.0945 38.9335 25.0945 39.2299V42.4032C25.0945 42.6821 25.2767 42.8565 25.5683 42.8565H27.3357C28.265 42.8565 28.8117 42.4206 28.8117 41.6709C28.8117 41.2873 28.6659 40.9909 28.3926 40.7991ZM27.354 41.915H26.0785V41.2176H27.354C27.7548 41.2176 27.8095 41.4093 27.8095 41.5663C27.8095 41.7232 27.773 41.915 27.354 41.915ZM26.0785 40.3807V39.7181H27.3357C27.7366 39.7181 27.7913 39.9099 27.7913 40.0668C27.7913 40.2237 27.7548 40.3807 27.3357 40.3807H26.0785Z" fill="white"/>
<path d="M31.4902 40.3283H33.2212V38.7766H34.2052V42.8565H33.2212V41.2699H31.4902V42.8565H30.488V38.7766H31.4902V40.3283Z" fill="white"/>
<path d="M37.0296 38.7766H36.0457V42.8565H37.0296V38.7766Z" fill="white"/>
<path d="M43.0972 42.0022C43.1154 42.0022 43.1519 42.0022 43.1883 41.9324L44.4091 38.7766H45.466L44.1723 42.1242C44.0447 42.4729 43.8078 42.9263 43.0972 42.9263C42.4595 42.9263 42.0768 42.5601 42.0768 41.9499V39.7181C42.0768 39.6309 41.9675 39.6135 41.931 39.7181L40.9653 42.1417C40.8378 42.4904 40.6009 42.9437 39.8902 42.9437C39.2343 42.9437 38.8516 42.5775 38.8516 41.9673V38.794H39.8356V41.9324C39.8356 42.0022 39.872 42.0022 39.8902 42.0022C39.9085 42.0022 39.9449 41.9847 39.9631 41.9324L40.9289 39.5089C41.0564 39.1602 41.2933 38.7069 42.0039 38.7069C42.6417 38.7069 43.0425 39.0904 43.0425 39.6833V41.9324C43.0425 42.0022 43.079 42.0022 43.0972 42.0022Z" fill="white"/>
<path d="M48.4177 38.7069C47.9257 38.7069 47.616 38.8987 47.452 39.2822L45.976 42.8565H47.0693L48.363 39.7181C48.3813 39.6833 48.3995 39.6833 48.4177 39.6833C48.4351 39.6833 48.4442 39.6833 48.4509 39.687C48.4583 39.6912 48.4628 39.6999 48.4724 39.7181L49.7114 42.8565H50.8047L49.3834 39.2997C49.2194 38.8987 48.9097 38.7069 48.4177 38.7069Z" fill="white"/>
<path d="M55.7062 41.915V38.7766H56.6902V41.9673C56.6902 42.5775 56.2893 42.9437 55.6334 42.9437C54.9227 42.9437 54.6676 42.5078 54.5218 42.1417L53.3739 39.7356C53.3375 39.6484 53.3192 39.6484 53.2646 39.6484C53.1735 39.6484 53.1735 39.6658 53.1735 39.7181V42.8565H52.1895V39.6833C52.1895 39.073 52.5904 38.7069 53.2464 38.7069C53.957 38.7069 54.2121 39.1428 54.3579 39.5089L55.5058 41.915C55.524 41.9673 55.5605 41.9847 55.6151 41.9847C55.7062 41.9847 55.7062 41.9499 55.7062 41.915Z" fill="white"/>
<path d="M35.9 35.3425H40.5829C40.7469 35.3425 40.8926 35.2902 41.0202 35.1681L45.9035 30.6523C46.0128 30.5477 46.1768 30.4779 46.3408 30.4779H46.4502C46.9239 30.4779 47.2337 30.9836 46.9968 31.3672L45.1382 34.4184C44.9013 34.8194 45.1929 35.3076 45.6849 35.3076H56.2715C56.4537 35.3076 56.6359 35.2204 56.7635 35.0809L76.8616 10.7235C77.1896 10.3399 76.8981 9.76452 76.3697 9.76452H66.7852C66.6212 9.76452 66.4754 9.81682 66.3479 9.92142L54.7409 20.5223C54.6316 20.6269 54.4676 20.6792 54.3218 20.6792C53.8116 20.6792 53.5201 20.1387 53.8116 19.7377L60.5353 10.6711C60.8268 10.2701 60.5353 9.72963 60.0251 9.72963H52.3539C52.1899 9.72963 52.0259 9.79937 51.9166 9.90398L41.0931 20.5048C40.9837 20.6269 40.8198 20.6792 40.6558 20.6792H40.5282C40.0545 20.6792 39.7447 20.191 39.9816 19.79L45.448 10.6014C45.6849 10.2004 45.3933 9.71219 44.9013 9.71219H35.9364C35.5902 9.71219 35.3169 9.97374 35.3169 10.305V34.6625C35.2805 35.0809 35.5538 35.3425 35.9 35.3425Z" fill="white"/>
<path d="M25.6411 9.97308L0.18586 34.3306C-0.215011 34.6967 0.0765315 35.3418 0.641394 35.3418H14.107C14.271 35.3418 14.435 35.2721 14.5443 35.1675L25.386 24.7933C25.4953 24.6887 25.6593 24.619 25.8233 24.619H25.8962C26.3882 24.619 26.6797 25.1246 26.4246 25.5256L20.6302 34.4352C20.3751 34.8362 20.6667 35.3418 21.1587 35.3418H32.2555C32.6017 35.3418 32.875 35.0803 32.875 34.749V10.3916C32.875 10.0603 32.6017 9.79873 32.2555 9.79873H26.0784C25.9144 9.79873 25.7504 9.86847 25.6411 9.97308Z" fill="white"/>
</svg>
